<mxfile host="app.diagrams.net" modified="2023-07-11T12:06:35.337Z" agent="Mozilla/5.0 (Windows NT 10.0; Win64; x64) AppleWebKit/537.36 (KHTML, like Gecko) Chrome/114.0.0.0 Safari/537.36 Edg/114.0.1823.67" etag="DN2VuucqwoqmgbTNTU_G" version="21.6.1" type="github">
  <diagram name="Page-1" id="Cm_4wkN-GN0uIqPpSMrb">
    <mxGraphModel dx="880" dy="452" grid="1" gridSize="10" guides="1" tooltips="1" connect="1" arrows="1" fold="1" page="1" pageScale="1" pageWidth="850" pageHeight="1100" math="0" shadow="0">
      <root>
        <mxCell id="0" />
        <mxCell id="1" parent="0" />
        <UserObject label="cpython" link="https://github.com/hayderzaeim/cpython" id="vRcfpWh9QqBibadA-jrP-1">
          <mxCell style="fontColor=#0000EE;fontStyle=4;rounded=1;overflow=hidden;spacing=10;" parent="1" vertex="1">
            <mxGeometry x="380" y="220" width="90" height="40" as="geometry" />
          </mxCell>
        </UserObject>
        <UserObject label="cpython" link="https://github.com/hayderzaeim/cpython" id="4KKawlEOPfaUOTK1HqtL-3">
          <mxCell style="fontColor=#0000EE;fontStyle=4;rounded=1;overflow=hidden;spacing=10;" vertex="1" parent="1">
            <mxGeometry x="380" y="190" width="80" height="40" as="geometry" />
          </mxCell>
        </UserObject>
      </root>
    </mxGraphModel>
  </diagram>
</mxfile>
